# xmcd
#
# Track frame offsets: 
#        150
#        14748
#        27632
#        39673
#        51861
#        65574
#        74878
#        87992
#        102019
#        122454
#
# Disc length: 1821 seconds
#
# Revision: 0
# Processed by: cddbd v1.5.2PL0 Copyright (c) Steve Scherf et al.
# Submitted via: ExactAudioCopy v1.3
#
DISCID=91071b0a
DTITLE=Joakim Tinderholt and His Band - Hold On
DYEAR=2017
DGENRE=Blues, West Coast Blues
TTITLE0=Trouble up the Road
TTITLE1=Anything Is Better Than Nothin
TTITLE2=Jungle Bo
TTITLE3=Farmer John
TTITLE4=What About Love
TTITLE5=Hold on to Love
TTITLE6=Sweet Baby of Mine
TTITLE7=Number 9 Train
TTITLE8=Poor Side of Town
TTITLE9=Quit
EXTD=
EXTT0=
EXTT1=
EXTT2=
EXTT3=
EXTT4=
EXTT5=
EXTT6=
EXTT7=
EXTT8=
EXTT9=
PLAYORDER=
